<svg width="24" height="24" viewBox="0 0 24 24" fill="none" xmlns="http://www.w3.org/2000/svg">
<path d="M7.7325 14.0627H7.73362C7.73456 14.0627 7.7355 14.0625 7.73639 14.0625H20.4844C20.6372 14.0625 20.7858 14.0127 20.9077 13.9207C21.0297 13.8287 21.1184 13.6994 21.1604 13.5525L23.9729 3.7088C24.0028 3.60417 24.008 3.49404 23.9881 3.38707C23.9682 3.28009 23.9238 3.17919 23.8583 3.0923C23.7927 3.0054 23.7079 2.9349 23.6105 2.88635C23.5131 2.8378 23.4057 2.81252 23.2969 2.8125H6.11095L5.60836 0.550594C5.57363 0.39442 5.48668 0.254756 5.36188 0.154656C5.23707 0.0545557 5.08186 2.16079e-06 4.92187 0L0.703125 0C0.314766 0 0 0.314766 0 0.703125C0 1.09148 0.314766 1.40625 0.703125 1.40625H4.35792C4.44689 1.80703 6.76317 12.2305 6.89648 12.8302C6.14925 13.155 5.625 13.9001 5.625 14.7656C5.625 15.9287 6.57131 16.875 7.73437 16.875H20.4844C20.8727 16.875 21.1875 16.5602 21.1875 16.1719C21.1875 15.7835 20.8727 15.4688 20.4844 15.4688H7.73437C7.34672 15.4688 7.03125 15.1533 7.03125 14.7656C7.03125 14.3785 7.34564 14.0636 7.7325 14.0627ZM22.3647 4.21875L19.9539 12.6562H8.29837L6.42337 4.21875H22.3647ZM7.03125 18.9844C7.03125 20.1475 7.97756 21.0938 9.14062 21.0938C10.3037 21.0938 11.25 20.1474 11.25 18.9844C11.25 17.8213 10.3037 16.875 9.14062 16.875C7.97756 16.875 7.03125 17.8213 7.03125 18.9844ZM9.14062 18.2812C9.52828 18.2812 9.84375 18.5967 9.84375 18.9844C9.84375 19.372 9.52828 19.6875 9.14062 19.6875C8.75297 19.6875 8.4375 19.372 8.4375 18.9844C8.4375 18.5967 8.75297 18.2812 9.14062 18.2812ZM16.9687 18.9844C16.9687 20.1475 17.9151 21.0938 19.0781 21.0938C20.2412 21.0938 21.1875 20.1474 21.1875 18.9844C21.1875 17.8213 20.2412 16.875 19.0781 16.875C17.9151 16.875 16.9687 17.8213 16.9687 18.9844ZM19.0781 18.2812C19.4658 18.2812 19.7812 18.5967 19.7812 18.9844C19.7812 19.372 19.4658 19.6875 19.0781 19.6875C18.6905 19.6875 18.375 19.372 18.375 18.9844C18.375 18.5967 18.6905 18.2812 19.0781 18.2812Z" fill="#FF7A01"/>
</svg>
