<svg width="26" height="24" viewBox="0 0 26 24" fill="none" xmlns="http://www.w3.org/2000/svg">
<path d="M19.95 11H5.24999C4.0902 11 3.14999 11.8954 3.14999 13V20C3.14999 21.1046 4.0902 22 5.24999 22H19.95C21.1098 22 22.05 21.1046 22.05 20V13C22.05 11.8954 21.1098 11 19.95 11Z" stroke="black" stroke-opacity="0.3" stroke-width="2" stroke-linecap="round" stroke-linejoin="round"/>
<path d="M7.35001 11V7C7.35001 5.67392 7.90313 4.40215 8.8877 3.46447C9.87226 2.52678 11.2076 2 12.6 2C13.9924 2 15.3278 2.52678 16.3123 3.46447C17.2969 4.40215 17.85 5.67392 17.85 7V11" stroke="black" stroke-opacity="0.3" stroke-width="2" stroke-linecap="round" stroke-linejoin="round"/>
</svg>
