<svg width="24" height="24" viewBox="0 0 24 24" fill="none" xmlns="http://www.w3.org/2000/svg">
<path d="M19.2656 12.3217V10.0781C19.2656 6.80522 17.0901 4.0312 14.1094 3.12516V2.10938C14.1094 0.946266 13.1631 0 12 0C10.8369 0 9.89062 0.946266 9.89062 2.10938V3.12516C6.90984 4.0312 4.73437 6.80517 4.73437 10.0781V12.3217C4.73437 15.1966 3.63852 17.9227 1.64873 19.9977C1.55332 20.0972 1.48925 20.2225 1.46448 20.3581C1.43971 20.4936 1.45534 20.6335 1.50941 20.7603C1.56349 20.887 1.65363 20.9951 1.76863 21.0711C1.88363 21.147 2.01842 21.1875 2.15624 21.1875H8.5551C8.88173 22.7903 10.3022 24 12 24C13.6978 24 15.1182 22.7903 15.4449 21.1875H21.8437C21.9816 21.1875 22.1163 21.147 22.2313 21.071C22.3463 20.9951 22.4364 20.887 22.4905 20.7603C22.5446 20.6335 22.5602 20.4936 22.5354 20.3581C22.5107 20.2225 22.4466 20.0972 22.3513 19.9977C20.3615 17.9227 19.2656 15.1965 19.2656 12.3217ZM11.2969 2.10938C11.2969 1.72167 11.6123 1.40625 12 1.40625C12.3877 1.40625 12.7031 1.72167 12.7031 2.10938V2.84663C12.4717 2.82431 12.2372 2.8125 12 2.8125C11.7628 2.8125 11.5283 2.82431 11.2969 2.84663V2.10938ZM12 22.5938C11.0834 22.5938 10.3018 22.0059 10.0116 21.1875H13.9884C13.6982 22.0059 12.9166 22.5938 12 22.5938ZM3.67171 19.7812C5.27301 17.6348 6.14062 15.0371 6.14062 12.3217V10.0781C6.14062 6.84727 8.76913 4.21875 12 4.21875C15.2309 4.21875 17.8594 6.84727 17.8594 10.0781V12.3217C17.8594 15.0371 18.727 17.6348 20.3283 19.7812H3.67171ZM21.1406 10.0781C21.1406 10.4664 21.4554 10.7812 21.8437 10.7812C22.2321 10.7812 22.5469 10.4664 22.5469 10.0781C22.5469 7.26094 21.4498 4.61236 19.4578 2.62031C19.1832 2.34577 18.738 2.34572 18.4634 2.62031C18.1888 2.89491 18.1888 3.34008 18.4634 3.61467C20.1899 5.34113 21.1406 7.63655 21.1406 10.0781ZM2.15624 10.7812C2.54456 10.7812 2.85937 10.4664 2.85937 10.0781C2.85937 7.63659 3.81018 5.34117 5.53659 3.61472C5.81118 3.34012 5.81118 2.89495 5.53659 2.62036C5.26204 2.34577 4.81682 2.34577 4.54223 2.62036C2.55018 4.61241 1.45312 7.26094 1.45312 10.0781C1.45312 10.4664 1.76793 10.7812 2.15624 10.7812Z" fill="#FF7A01"/>
</svg>
